# xmcd
#
# Track frame offsets: 
#        150
#        20918
#        37618
#
# Disc length: 817 seconds
#
# Revision: 0
# Processed by: cddbd v1.5.2PL0 Copyright (c) Steve Scherf et al.
# Submitted via: ExactAudioCopy v1.0b3
#
DISCID=19032f03
DTITLE=宮野真守 - J☆S
DYEAR=2009
DGENRE=
TTITLE0=J☆S
TTITLE1=ハッピーライフ！
TTITLE2=Splash Blue
EXTD=
EXTT0=
EXTT1=
EXTT2=
PLAYORDER=
